<?xml version="1.0" encoding="iso-8859-1"?>
<!-- Generator: Adobe Illustrator 19.0.0, SVG Export Plug-In . SVG Version: 6.00 Build 0)  -->
<svg version="1.1" id="Capa_1" xmlns="http://www.w3.org/2000/svg" xmlns:xlink="http://www.w3.org/1999/xlink" x="0px" y="0px"
	 viewBox="0 0 512 512" style="enable-background:new 0 0 512 512;" xml:space="preserve">
<g>
	<g>
		<path d="M472.423,104.226H383.75V71.662c0-21.823-17.755-39.577-39.577-39.577H39.577C17.755,32.085,0,49.839,0,71.662v216.423
			c0,21.823,17.755,39.577,39.577,39.577h40.579v72.642c0,6.224,7.519,9.779,12.325,5.773l38.307-31.922
			c5.648,14.969,20.117,25.648,37.039,25.648h157.593l94.098,78.415c4.806,4.006,12.325,0.452,12.325-5.773v-72.642h40.579
			c21.823,0,39.577-17.755,39.577-39.577V143.803C512,121.98,494.245,104.226,472.423,104.226z M496.971,360.226
			c0,13.535-11.013,24.548-24.548,24.548h-48.094c-4.15,0-7.515,3.365-7.515,7.515v64.112l-83.863-69.885
			c-1.351-1.125-3.053-1.741-4.81-1.741H167.828c-12.407,0-22.687-9.254-24.316-21.221l43.068-35.89h157.593
			c21.823,0,39.577-17.755,39.577-39.577v-91.846c0-4.15-3.365-7.515-7.515-7.515c-4.15,0-7.515,3.365-7.515,7.515v91.846
			c0,13.535-11.013,24.548-24.548,24.548H183.859c-1.757,0-3.461,0.616-4.81,1.741l-48.061,40.051
			c-0.002,0.001-0.003,0.003-0.005,0.004l-35.797,29.831v-64.112c0-4.15-3.365-7.515-7.515-7.515H39.577
			c-13.535,0-24.548-11.013-24.548-24.548V71.663c0-13.535,11.013-24.548,24.548-24.548h304.595
			c13.535,0,24.548,11.013,24.548,24.548v88.506c0,4.15,3.365,7.515,7.515,7.515c4.15,0,7.515-3.365,7.515-7.515v-40.913h88.673
			c13.535,0,24.548,11.013,24.548,24.548V360.226z"/>
	</g>
</g>
<g>
	<g>
		<path d="M313.775,117.002c-9.548-21.962-30.057-36.217-53.523-37.201c-25.77-1.073-50.209,13.836-68.378,41.333
			c-18.167-27.497-42.593-42.409-68.378-41.333c-23.466,0.984-43.976,15.238-53.525,37.201c-11.816,27.178-4.524,59.18,20.008,87.8
			c48.524,56.611,96.513,80.978,98.532,81.987c2.097,1.048,4.624,1.048,6.721,0c2.019-1.009,50.01-25.377,98.532-81.987
			C318.299,176.181,325.592,144.179,313.775,117.002z M282.357,195.022c-39.263,45.805-78.906,69.991-90.483,76.502
			c-11.586-6.517-51.225-30.703-90.483-76.502c-20.64-24.081-27.069-50.333-17.636-72.028c7.235-16.64,22.704-27.437,40.371-28.178
			c0.652-0.027,1.302-0.041,1.954-0.041c22.388,0,43.862,16.131,59.178,44.574c1.311,2.434,3.852,3.952,6.617,3.952
			c2.765,0,5.305-1.518,6.617-3.952c15.76-29.269,38.055-45.513,61.131-44.533c17.667,0.74,33.137,11.538,40.371,28.178
			C309.425,144.689,302.998,170.942,282.357,195.022z"/>
	</g>
</g>
<g>
</g>
<g>
</g>
<g>
</g>
<g>
</g>
<g>
</g>
<g>
</g>
<g>
</g>
<g>
</g>
<g>
</g>
<g>
</g>
<g>
</g>
<g>
</g>
<g>
</g>
<g>
</g>
<g>
</g>
</svg>
